<svg width="82" height="34" viewBox="0 0 82 34" fill="none" xmlns="http://www.w3.org/2000/svg">
<rect x="48.5" y="0.5" width="33" height="33" rx="16.5" stroke="white"/>
<rect x="59.5856" y="21.4819" width="13.9942" height="1.74928" rx="0.874639" transform="rotate(-45 59.5856 21.4819)" fill="white"/>
<rect x="60.8231" y="11.5864" width="13.9942" height="1.74928" rx="0.874639" transform="rotate(45 60.8231 11.5864)" fill="white"/>
<path d="M9.27246 18.3154L11.2344 18.9375C10.9336 20.0312 10.4323 20.8447 9.73047 21.3779C9.0332 21.9066 8.14681 22.1709 7.07129 22.1709C5.74056 22.1709 4.64681 21.7174 3.79004 20.8105C2.93327 19.8991 2.50488 18.6549 2.50488 17.0781C2.50488 15.4102 2.93555 14.1159 3.79688 13.1953C4.6582 12.2702 5.79069 11.8076 7.19434 11.8076C8.42025 11.8076 9.41602 12.1699 10.1816 12.8945C10.6374 13.3229 10.9792 13.9382 11.207 14.7402L9.2041 15.2188C9.08561 14.6992 8.83724 14.2891 8.45898 13.9883C8.08529 13.6875 7.62956 13.5371 7.0918 13.5371C6.34896 13.5371 5.74512 13.8037 5.28027 14.3369C4.81999 14.8701 4.58984 15.7337 4.58984 16.9277C4.58984 18.1947 4.81771 19.097 5.27344 19.6348C5.72917 20.1725 6.32161 20.4414 7.05078 20.4414C7.58854 20.4414 8.05111 20.2705 8.43848 19.9287C8.82585 19.5869 9.10384 19.0492 9.27246 18.3154ZM12.9639 22V11.9785H14.8848V22H12.9639ZM16.416 18.2676C16.416 17.6296 16.5732 17.012 16.8877 16.415C17.2021 15.818 17.6465 15.3623 18.2207 15.0479C18.7995 14.7334 19.4443 14.5762 20.1553 14.5762C21.2536 14.5762 22.1536 14.9339 22.8555 15.6494C23.5573 16.3604 23.9082 17.2604 23.9082 18.3496C23.9082 19.4479 23.5527 20.3594 22.8418 21.084C22.1354 21.804 21.2445 22.1641 20.1689 22.1641C19.5036 22.1641 18.8678 22.0137 18.2617 21.7129C17.6602 21.4121 17.2021 20.9723 16.8877 20.3936C16.5732 19.8102 16.416 19.1016 16.416 18.2676ZM18.3848 18.3701C18.3848 19.0902 18.5557 19.6416 18.8975 20.0244C19.2393 20.4072 19.6608 20.5986 20.1621 20.5986C20.6634 20.5986 21.0827 20.4072 21.4199 20.0244C21.7617 19.6416 21.9326 19.0856 21.9326 18.3564C21.9326 17.6455 21.7617 17.0986 21.4199 16.7158C21.0827 16.333 20.6634 16.1416 20.1621 16.1416C19.6608 16.1416 19.2393 16.333 18.8975 16.7158C18.5557 17.0986 18.3848 17.6501 18.3848 18.3701ZM24.7422 19.9287L26.6699 19.6348C26.752 20.0085 26.9183 20.2933 27.1689 20.4893C27.4196 20.6807 27.7705 20.7764 28.2217 20.7764C28.7184 20.7764 29.0921 20.6852 29.3428 20.5029C29.5114 20.3753 29.5957 20.2044 29.5957 19.9902C29.5957 19.8444 29.5501 19.7236 29.459 19.6279C29.3633 19.5368 29.1491 19.4525 28.8164 19.375C27.2669 19.0332 26.2848 18.721 25.8701 18.4385C25.2959 18.0465 25.0088 17.502 25.0088 16.8047C25.0088 16.1758 25.2572 15.6471 25.7539 15.2188C26.2507 14.7904 27.0208 14.5762 28.0645 14.5762C29.0579 14.5762 29.7962 14.738 30.2793 15.0615C30.7624 15.3851 31.0951 15.8636 31.2773 16.4971L29.4658 16.832C29.3883 16.5495 29.2402 16.333 29.0215 16.1826C28.8073 16.0322 28.4997 15.957 28.0986 15.957C27.5928 15.957 27.2305 16.0277 27.0117 16.1689C26.8659 16.2692 26.793 16.3991 26.793 16.5586C26.793 16.6953 26.8568 16.8115 26.9844 16.9072C27.1576 17.0348 27.7546 17.2148 28.7754 17.4473C29.8008 17.6797 30.5163 17.9645 30.9219 18.3018C31.3229 18.6436 31.5234 19.1198 31.5234 19.7305C31.5234 20.3958 31.2454 20.9678 30.6895 21.4463C30.1335 21.9248 29.3109 22.1641 28.2217 22.1641C27.2327 22.1641 26.4489 21.9635 25.8701 21.5625C25.2959 21.1615 24.9199 20.6169 24.7422 19.9287ZM37.416 19.6895L39.3301 20.0107C39.084 20.7126 38.6943 21.248 38.1611 21.6172C37.6325 21.9818 36.9694 22.1641 36.1719 22.1641C34.9095 22.1641 33.9753 21.7516 33.3691 20.9268C32.8906 20.266 32.6514 19.432 32.6514 18.4248C32.6514 17.2217 32.9658 16.2806 33.5947 15.6016C34.2236 14.918 35.0189 14.5762 35.9805 14.5762C37.0605 14.5762 37.9128 14.9339 38.5371 15.6494C39.1615 16.3604 39.46 17.4518 39.4326 18.9238H34.6201C34.6338 19.4935 34.7887 19.9378 35.085 20.2568C35.3812 20.5713 35.7503 20.7285 36.1924 20.7285C36.4932 20.7285 36.7461 20.6465 36.9512 20.4824C37.1562 20.3184 37.3112 20.054 37.416 19.6895ZM37.5254 17.748C37.5117 17.1921 37.3682 16.7705 37.0947 16.4834C36.8213 16.1917 36.4886 16.0459 36.0967 16.0459C35.6774 16.0459 35.3311 16.1986 35.0576 16.5039C34.7842 16.8092 34.6497 17.224 34.6543 17.748H37.5254Z" fill="white"/>
</svg>
