<svg width="24" height="24" viewBox="0 0 24 24" fill="none" xmlns="http://www.w3.org/2000/svg">
<path opacity="0.5" d="M12 22C6.48578 22 2 17.5142 2 12C2 6.48578 6.48578 2 12 2C17.5142 2 22 6.48578 22 12C22 17.5142 17.5142 22 12 22ZM12 3.25C7.17502 3.25 3.25 7.17502 3.25 12C3.25 16.825 7.17502 20.75 12 20.75C16.825 20.75 20.75 16.825 20.75 12C20.75 7.17502 16.825 3.25 12 3.25Z" fill="#232735"/>
<path opacity="0.5" d="M16.375 17.4174C16.2149 17.4174 16.055 17.3565 15.9333 17.234L11.5583 12.859C11.4408 12.7415 11.375 12.5824 11.375 12.4174V6.58398C11.375 6.23898 11.655 5.95898 12 5.95898C12.345 5.95898 12.625 6.23898 12.625 6.58398V12.1582L16.8167 16.3499C17.0609 16.5941 17.0609 16.9899 16.8167 17.234C16.695 17.3565 16.5351 17.4174 16.375 17.4174V17.4174Z" fill="#232735"/>
</svg>
