<svg width="18" height="16" viewBox="0 0 18 16" fill="none" xmlns="http://www.w3.org/2000/svg">
<path d="M14.7995 9.13369C13.5979 10.6038 11.865 12.179 9.70419 14.1405L8.99996 14.7792L8.29573 14.1405C6.13489 12.179 4.40205 10.6038 3.20045 9.13369C2.00729 7.67393 1.41663 6.40979 1.41663 5.08333C1.41663 2.92671 3.09334 1.25 5.24996 1.25C6.47305 1.25 7.65901 1.82315 8.42989 2.72486L8.99996 3.39169L9.57003 2.72486C10.3409 1.82315 11.5269 1.25 12.75 1.25C14.9066 1.25 16.5833 2.92671 16.5833 5.08333C16.5833 6.40979 15.9926 7.67393 14.7995 9.13369Z" fill="white" stroke="black" stroke-width="1.5"/>
</svg>
