<svg width="32" height="33" viewBox="0 0 32 33" fill="none" xmlns="http://www.w3.org/2000/svg">
<path d="M4.16042 23.7916L7.73415 14.486H9.06081L12.8694 23.7916H11.4666L10.3811 20.9733H6.49001L5.46804 23.7916H4.16042ZM6.84548 19.9703H10.0003L9.02907 17.3932C8.73285 16.6103 8.5128 15.9671 8.36892 15.4635C8.25043 16.0602 8.08327 16.6526 7.86745 17.2408L6.84548 19.9703ZM13.3211 23.7916L18.8191 9.47522H20.8601L26.7195 23.7916H24.5613L22.8914 19.4557H16.905L15.3328 23.7916H13.3211ZM17.4519 17.9127H22.3054L20.8113 13.9479C20.3556 12.7434 20.017 11.7539 19.7957 10.9791C19.6134 11.8971 19.3562 12.8086 19.0242 13.7135L17.4519 17.9127Z" fill="#232735"/>
</svg>
