<svg width="35" height="36" viewBox="0 0 35 36" fill="none" xmlns="http://www.w3.org/2000/svg">
<g clip-path="url(#clip0)">
<path opacity="0.5" d="M17.5 35.9971C27.165 35.9971 35 28.1621 35 18.4971C35 8.83209 27.165 0.99707 17.5 0.99707C7.83502 0.99707 0 8.83209 0 18.4971C0 28.1621 7.83502 35.9971 17.5 35.9971Z" fill="black"/>
<path d="M19.373 12.4023V14.1733H22.0293V16.8293H23.7988V12.4023H19.373ZM22.0293 23.0273H19.373V24.8023H23.7988V20.3753H22.0293V23.0273ZM11.4062 16.8273H13.1738V14.1714H15.832V12.4023H11.4043L11.4062 16.8273ZM13.1738 20.3683H11.4043V24.8023H15.8301V23.0313H13.1719L13.1738 20.3683Z" fill="white"/>
</g>
<defs>
<clipPath id="clip0">
<rect width="35" height="35" fill="white" transform="translate(0 0.99707)"/>
</clipPath>
</defs>
</svg>
